<svg width="151" height="48" viewBox="0 0 151 48" fill="none" xmlns="http://www.w3.org/2000/svg">
<g clip-path="url(#clip0_73_721)">
<path d="M20.805 5.882C23.253 5.882 25.188 6.224 26.61 6.908C28.05 7.574 29.139 8.321 29.877 9.149C30.471 9.833 30.957 10.625 31.335 11.525C31.713 12.407 31.902 13.469 31.902 14.711C31.902 15.629 31.695 16.592 31.281 17.6C30.867 18.59 30.327 19.391 29.661 20.003C28.959 20.669 28.293 21.209 27.663 21.623C27.051 22.037 26.214 22.379 25.152 22.649C24.108 22.901 22.776 23.027 21.156 23.027C19.932 23.027 18.825 22.892 17.835 22.622C16.845 22.334 16.35 21.857 16.35 21.191C16.35 20.921 16.467 20.714 16.701 20.57C16.953 20.408 17.223 20.327 17.511 20.327C17.673 20.327 17.781 20.336 17.835 20.354C17.961 19.166 18.024 17.906 18.024 16.574C18.024 15.08 17.988 13.847 17.916 12.875C17.844 11.885 17.745 10.904 17.619 9.932C17.601 9.806 17.556 9.455 17.484 8.879C17.43 8.303 17.403 7.718 17.403 7.124C17.403 6.746 17.592 6.431 17.97 6.179C18.348 5.909 18.735 5.774 19.131 5.774C19.365 5.774 19.68 5.792 20.076 5.828C20.4 5.864 20.643 5.882 20.805 5.882ZM20.454 20.489C20.886 20.561 21.453 20.597 22.155 20.597C23.343 20.597 24.468 20.354 25.53 19.868C26.592 19.364 27.447 18.671 28.095 17.789C28.743 16.889 29.067 15.854 29.067 14.684C29.067 13.46 28.851 12.416 28.419 11.552C27.987 10.688 27.321 9.977 26.421 9.419C25.755 9.005 24.936 8.708 23.964 8.528C22.992 8.33 21.822 8.231 20.454 8.231C20.454 8.663 20.481 9.203 20.535 9.851C20.535 10.067 20.553 10.445 20.589 10.985C20.697 13.073 20.751 14.756 20.751 16.034C20.751 17.888 20.652 19.373 20.454 20.489ZM45 14.333C45.144 14.585 45.261 14.954 45.351 15.44C45.441 15.908 45.486 16.331 45.486 16.709C45.486 17.411 45.333 18.41 45.027 19.706C43.785 21.974 41.949 23.108 39.519 23.108C38.619 23.108 37.701 22.811 36.765 22.217C35.829 21.623 35.181 20.939 34.821 20.165C34.335 18.617 34.092 17.636 34.092 17.222C34.092 16.502 34.245 15.737 34.551 14.927C34.875 14.117 35.28 13.415 35.766 12.821C36.072 12.407 36.621 12.056 37.413 11.768C38.205 11.462 38.925 11.309 39.573 11.309C40.833 11.309 41.904 11.552 42.786 12.038C43.668 12.506 44.406 13.271 45 14.333ZM42.651 18.68C42.741 18.446 42.786 17.843 42.786 16.871C42.786 16.349 42.687 15.836 42.489 15.332C42.309 14.828 42.039 14.396 41.679 14.036C41.643 14 41.544 13.946 41.382 13.874C41.22 13.784 40.995 13.703 40.707 13.631C40.437 13.541 40.122 13.496 39.762 13.496C38.754 13.496 38.016 13.901 37.548 14.711C37.08 15.521 36.846 16.439 36.846 17.465C36.846 17.645 36.891 17.987 36.981 18.491C37.089 18.995 37.179 19.31 37.251 19.436C37.305 19.562 37.44 19.742 37.656 19.976C37.89 20.192 38.169 20.39 38.493 20.57C38.835 20.732 39.186 20.813 39.546 20.813C40.356 20.813 41.004 20.624 41.49 20.246C41.976 19.85 42.363 19.328 42.651 18.68ZM57.7094 13.982C57.7094 14.774 57.3044 15.17 56.4944 15.17C56.2244 15.17 55.9994 15.107 55.8194 14.981C55.6394 14.855 55.4414 14.666 55.2254 14.414C54.6854 13.82 54.2174 13.523 53.8214 13.523C53.2994 13.523 52.7864 13.676 52.2824 13.982C51.7964 14.288 51.4004 14.72 51.0944 15.278C50.7884 15.836 50.6354 16.457 50.6354 17.141C50.6354 17.897 50.7794 18.527 51.0674 19.031C51.3734 19.535 51.8414 19.967 52.4714 20.327C52.7054 20.453 52.9754 20.552 53.2814 20.624C53.6054 20.696 53.8844 20.732 54.1184 20.732C54.6404 20.732 55.2974 20.525 56.0894 20.111C56.3774 19.967 56.6204 19.859 56.8184 19.787C57.0164 19.715 57.2234 19.679 57.4394 19.679C57.6374 19.679 57.8624 19.769 58.1144 19.949C58.3664 20.129 58.4924 20.354 58.4924 20.624C58.4924 21.164 58.2404 21.623 57.7364 22.001C57.2324 22.361 56.6114 22.64 55.8734 22.838C55.1534 23.018 54.4604 23.108 53.7944 23.108C52.7324 23.108 51.7424 22.865 50.8244 22.379C49.9244 21.893 49.2044 21.227 48.6644 20.381C48.1244 19.517 47.8544 18.545 47.8544 17.465C47.8544 16.313 48.1154 15.26 48.6374 14.306C49.1594 13.352 49.8614 12.605 50.7434 12.065C51.6254 11.525 52.5884 11.255 53.6324 11.255C54.2264 11.255 54.8384 11.363 55.4684 11.579C56.0984 11.795 56.6294 12.11 57.0614 12.524C57.4934 12.938 57.7094 13.424 57.7094 13.982Z" fill="black"/>
<path d="M90.123 32.333C90.267 32.585 90.384 32.954 90.474 33.44C90.564 33.908 90.609 34.331 90.609 34.709C90.609 35.411 90.456 36.41 90.15 37.706C88.908 39.974 87.072 41.108 84.642 41.108C83.742 41.108 82.824 40.811 81.888 40.217C80.952 39.623 80.304 38.939 79.944 38.165C79.458 36.617 79.215 35.636 79.215 35.222C79.215 34.502 79.368 33.737 79.674 32.927C79.998 32.117 80.403 31.415 80.889 30.821C81.195 30.407 81.744 30.056 82.536 29.768C83.328 29.462 84.048 29.309 84.696 29.309C85.956 29.309 87.027 29.552 87.909 30.038C88.791 30.506 89.529 31.271 90.123 32.333ZM87.774 36.68C87.864 36.446 87.909 35.843 87.909 34.871C87.909 34.349 87.81 33.836 87.612 33.332C87.432 32.828 87.162 32.396 86.802 32.036C86.766 32 86.667 31.946 86.505 31.874C86.343 31.784 86.118 31.703 85.83 31.631C85.56 31.541 85.245 31.496 84.885 31.496C83.877 31.496 83.139 31.901 82.671 32.711C82.203 33.521 81.969 34.439 81.969 35.465C81.969 35.645 82.014 35.987 82.104 36.491C82.212 36.995 82.302 37.31 82.374 37.436C82.428 37.562 82.563 37.742 82.779 37.976C83.013 38.192 83.292 38.39 83.616 38.57C83.958 38.732 84.309 38.813 84.669 38.813C85.479 38.813 86.127 38.624 86.613 38.246C87.099 37.85 87.486 37.328 87.774 36.68ZM105.559 38.921C105.649 38.957 105.793 39.002 105.991 39.056C106.189 39.11 106.333 39.164 106.423 39.218C106.513 39.272 106.558 39.353 106.558 39.461C106.576 39.893 106.414 40.253 106.072 40.541C105.748 40.811 105.361 40.946 104.911 40.946C104.209 40.946 103.66 40.757 103.264 40.379C102.868 40.001 102.58 39.425 102.4 38.651C102.328 38.345 102.292 37.922 102.292 37.382C102.292 37.076 102.31 36.581 102.346 35.897C102.382 35.177 102.4 34.601 102.4 34.169C102.4 33.539 102.22 32.99 101.86 32.522C101.518 32.036 101.032 31.793 100.402 31.793C100.024 31.793 99.6284 31.91 99.2144 32.144C98.8004 32.36 98.5124 32.63 98.3504 32.954C98.0804 33.476 97.8914 34.043 97.7834 34.655C97.5854 35.735 97.4864 36.86 97.4864 38.03C97.4864 38.588 97.4954 39.02 97.5134 39.326C97.5134 39.398 97.5134 39.542 97.5134 39.758C97.5314 39.956 97.5134 40.145 97.4594 40.325C97.4234 40.487 97.3514 40.64 97.2434 40.784C97.1534 40.874 97.0094 40.946 96.8114 41C96.6314 41.072 96.4604 41.108 96.2984 41.108C96.0464 41.108 95.7314 41 95.3534 40.784C94.9754 40.568 94.7594 40.325 94.7054 40.055L94.6784 39.596C94.6784 39.434 94.6964 39.245 94.7324 39.029C94.9484 37.769 95.0564 36.671 95.0564 35.735C95.0564 35.321 95.0474 34.997 95.0294 34.763L95.0024 33.494C95.0024 33.062 94.8944 32.648 94.6784 32.252C94.4624 31.838 94.2104 31.631 93.9224 31.631C93.8324 31.631 93.7064 31.667 93.5444 31.739C93.3824 31.793 93.2474 31.82 93.1394 31.82C92.9594 31.82 92.7614 31.73 92.5454 31.55C92.3474 31.37 92.2484 31.181 92.2484 30.983C92.2484 30.605 92.3744 30.299 92.6264 30.065C92.8964 29.849 93.1574 29.678 93.4094 29.552C93.6794 29.426 93.9854 29.363 94.3274 29.363C94.6154 29.363 94.8494 29.39 95.0294 29.444C95.2094 29.498 95.4524 29.615 95.7584 29.795C95.9204 29.885 96.1094 30.083 96.3254 30.389C96.5414 30.695 96.7214 31.127 96.8654 31.685C97.3334 30.821 97.9094 30.218 98.5934 29.876C99.2954 29.516 100.186 29.336 101.266 29.336C101.68 29.336 102.121 29.471 102.589 29.741C103.075 30.011 103.489 30.326 103.831 30.686C104.155 31.082 104.425 31.577 104.641 32.171C104.857 32.747 104.965 33.269 104.965 33.737C104.965 34.007 104.947 34.448 104.911 35.06C104.857 35.546 104.83 36.059 104.83 36.599C104.83 37.859 105.073 38.633 105.559 38.921ZM108.244 34.817C108.244 33.719 108.487 32.81 108.973 32.09C109.459 31.352 110.134 30.659 110.998 30.011C111.25 29.831 111.673 29.678 112.267 29.552C112.861 29.408 113.383 29.336 113.833 29.336C114.373 29.336 114.94 29.453 115.534 29.687C116.146 29.903 116.641 30.155 117.019 30.443C117.685 30.929 118.144 31.496 118.396 32.144C118.648 32.774 118.774 33.53 118.774 34.412C118.774 34.79 118.558 35.159 118.126 35.519C117.712 35.861 117.262 36.032 116.776 36.032L115.75 36.005C115.228 36.005 114.481 36.023 113.509 36.059L112.942 36.086C112.546 36.122 112.249 36.14 112.051 36.14C111.763 36.14 111.367 36.104 110.863 36.032C110.935 36.878 111.25 37.544 111.808 38.03C112.366 38.498 112.969 38.732 113.617 38.732C114.751 38.732 115.543 38.507 115.993 38.057C116.371 37.787 116.623 37.616 116.749 37.544C116.875 37.472 117.073 37.436 117.343 37.436C117.631 37.436 117.883 37.571 118.099 37.841C118.315 38.111 118.423 38.381 118.423 38.651C118.423 38.957 118.234 39.272 117.856 39.596C117.496 39.902 117.001 40.226 116.371 40.568C116.029 40.712 115.561 40.838 114.967 40.946C114.373 41.054 113.878 41.108 113.482 41.108C112.852 41.108 112.15 40.928 111.376 40.568C110.602 40.19 110.026 39.776 109.648 39.326C109.27 38.876 108.937 38.237 108.649 37.409C108.379 36.581 108.244 35.717 108.244 34.817ZM113.617 34.088C114.895 34.088 115.831 34.043 116.425 33.953C116.389 33.431 116.227 33.008 115.939 32.684C115.651 32.342 115.255 32.054 114.751 31.82C114.589 31.748 114.445 31.694 114.319 31.658C114.193 31.622 114.049 31.604 113.887 31.604C113.059 31.604 112.357 31.829 111.781 32.279C111.223 32.729 110.89 33.305 110.782 34.007C111.682 34.061 112.627 34.088 113.617 34.088Z" fill="black"/>
<path d="M57.0856 28.8588C59.2027 27.0804 61.3105 25.3685 63.4091 23.7232C65.5237 22.0822 67.618 20.4529 69.6918 18.8355C71.7817 17.2223 73.8239 15.5619 75.8185 13.8541C76.4013 13.3548 76.6452 12.9285 76.5503 12.5751C76.4597 12.2056 76.0624 11.9177 75.3585 11.7114C73.5848 11.1833 71.7965 10.6772 69.9937 10.193C68.1909 9.70885 66.4027 9.20271 64.629 8.67459C63.704 8.39167 63.031 8.03834 62.6098 7.6146C62.1886 7.19086 62.0775 6.60877 62.2763 5.86834C62.4708 5.14401 62.8822 4.73677 63.5104 4.64662C64.143 4.54038 64.9378 4.63305 65.8949 4.92461C68.1998 5.59539 70.5084 6.28442 72.8208 6.99172C75.1331 7.69901 77.4288 8.43634 79.7078 9.20369C80.5801 9.48974 81.1746 9.94277 81.4913 10.5628C81.808 11.1828 81.8669 11.8631 81.668 12.6035C81.5297 13.1186 81.2846 13.6136 80.9327 14.0886C79.8801 15.5661 78.8485 16.9976 77.838 18.3829C76.8317 19.7521 75.7949 21.1389 74.7274 22.5434C73.6642 23.9319 72.529 25.3959 71.3217 26.9354C70.0149 25.8251 68.9898 25.1443 68.2462 24.8928C67.507 24.6253 66.941 24.7407 66.5482 25.2393C66.1308 25.7657 66.1506 26.3664 66.6079 27.0414C67.0855 27.7047 67.9659 28.571 69.2491 29.6404C69.0457 29.9482 68.7971 30.2956 68.5033 30.6826C68.2095 31.0697 67.9448 31.4128 67.7092 31.7119C66.0908 30.1555 64.8584 29.186 64.012 28.8034C63.1699 28.4047 62.5219 28.4723 62.0679 29.0061C61.544 29.6075 61.5664 30.2952 62.1351 31.0692C62.7082 31.827 63.9248 32.8872 65.7851 34.2497C65.7313 34.3215 65.6775 34.3934 65.6237 34.4652C65.5699 34.537 65.5161 34.6089 65.4623 34.6807C65.4084 34.7525 65.3546 34.8244 65.3008 34.8962C64.8617 35.5031 64.6969 36.1491 64.8062 36.8343C64.936 37.5076 65.4457 37.9551 66.3353 38.1768C67.7927 38.5337 69.1825 38.8206 70.5047 39.0377C71.8314 39.2386 73.1729 39.5126 74.5293 39.8597C75.6486 40.1257 76.3742 40.4759 76.7063 40.9103C77.0544 41.3489 77.1247 41.9545 76.9173 42.7272C76.7789 43.2422 76.534 43.6079 76.1826 43.8242C75.8472 44.0447 75.4289 44.1567 74.9275 44.1601C74.4261 44.1635 73.8572 44.097 73.2208 43.9606C71.0541 43.4823 68.7115 42.8877 66.193 42.1768C63.6906 41.4702 61.2377 40.7079 58.8343 39.8899C57.0822 39.2813 55.8504 38.2774 55.139 36.8784C54.4275 35.4793 54.2728 34.0313 54.6748 32.5343C54.852 31.8744 55.1382 31.2264 55.5334 30.5905C55.9446 29.9588 56.462 29.3816 57.0856 28.8588ZM72.0944 36.203C71.4666 36.0344 70.9793 35.6964 70.6323 35.1891C70.3058 34.6699 70.2268 34.0965 70.3954 33.4687C70.6332 32.5835 71.0599 31.9905 71.6756 31.6899C72.2956 31.3732 72.992 31.3186 73.7646 31.5261C74.4728 31.7163 74.9822 32.0688 75.2926 32.5836C75.603 33.0984 75.6307 33.8307 75.3757 34.7804C75.1855 35.4886 74.7912 35.9608 74.1927 36.197C73.5987 36.4171 72.8992 36.4191 72.0944 36.203ZM70.6678 41.5148C70.7024 41.386 70.7327 41.2733 70.7586 41.1767C70.7889 41.0641 70.8191 40.9514 70.8494 40.8387C70.9748 40.3719 71.234 40.1136 71.627 40.0639C72.0404 40.0023 72.4645 40.0299 72.8991 40.1466C73.4463 40.2936 73.8346 40.5187 74.0638 40.8219C74.293 41.125 74.3396 41.4654 74.2037 41.8431C74.1734 41.9558 74.1308 42.0824 74.0758 42.2229C74.0251 42.3474 73.9825 42.474 73.9479 42.6027C73.8367 42.9525 73.5765 43.1502 73.1674 43.1956C72.7744 43.2454 72.3686 43.214 71.9501 43.1017C71.5477 42.9936 71.2056 42.7895 70.9238 42.4895C70.6581 42.1938 70.5727 41.8689 70.6678 41.5148ZM63.6602 39.2704C63.7474 39.1385 63.8367 38.9985 63.9282 38.8505C64.0197 38.7025 64.1091 38.5626 64.1963 38.4307C64.3169 38.2387 64.5006 38.1328 64.7476 38.1128C64.9989 38.0767 65.2775 38.0998 65.5833 38.1819C66.0662 38.3116 66.5005 38.5577 66.8864 38.9202C67.2723 39.2827 67.3687 39.6623 67.1759 40.0592C67.1295 40.1676 67.0708 40.2899 66.9997 40.4261C66.949 40.5505 66.8903 40.6728 66.8235 40.7929C66.6727 41.0976 66.4308 41.2915 66.0978 41.3746C65.7853 41.446 65.46 41.4363 65.1219 41.3455C64.7517 41.2461 64.4149 41.0866 64.1115 40.8671C63.8241 40.6518 63.6324 40.4019 63.5363 40.1172C63.4402 39.8325 63.4814 39.5503 63.6602 39.2704ZM70.5933 5.35806C70.5146 6.16526 70.4219 6.9601 70.3153 7.74256C70.2087 8.52502 70.0838 9.31121 69.9407 10.1011C69.739 11.2377 69.444 12.0472 69.0556 12.5296C68.6832 13.0164 68.108 13.1984 67.3299 13.0757C66.5926 12.9295 66.1584 12.554 66.0274 11.9494C65.8964 11.3447 65.9077 10.4676 66.0611 9.31806C66.159 8.56779 66.2758 7.77944 66.4115 6.95301C66.5632 6.1309 66.7209 5.319 66.8844 4.51732C67.2288 2.84956 67.6107 1.81314 68.0301 1.40806C68.4656 1.00731 68.9811 0.8869 69.5767 1.04685C70.1401 1.19814 70.4823 1.62658 70.6035 2.33215C70.7407 3.04204 70.7373 4.05067 70.5933 5.35806ZM75.6725 9.00009L72.5985 7.91569C73.235 6.18833 73.7569 4.88751 74.1643 4.01325C74.5878 3.14331 74.9795 2.58413 75.3396 2.33569C75.7158 2.09157 76.1615 2.03868 76.6765 2.17701C77.5457 2.41045 77.8807 3.02675 77.6814 4.02591C77.4864 5.00898 76.8168 6.66704 75.6725 9.00009Z" fill="#FF8400"/>
</g>
<defs>
<clipPath id="clip0_73_721">
<rect width="151" height="48" rx="24" fill="white"/>
</clipPath>
</defs>
</svg>
